<?xml version="1.0" standalone="no"?>
<!DOCTYPE svg PUBLIC "-//W3C//DTD SVG 20010904//EN"
 "http://www.w3.org/TR/2001/REC-SVG-20010904/DTD/svg10.dtd">
<svg version="1.0" xmlns="http://www.w3.org/2000/svg"
 width="220.000000pt" height="220.000000pt" viewBox="0 0 220.000000 220.000000"
 preserveAspectRatio="xMidYMid meet">
<metadata>
Created by potrace 1.14, written by Peter Selinger 2001-2017
</metadata>
<g transform="translate(0.000000,220.000000) scale(0.100000,-0.100000)"
fill="#000000" stroke="none">
<path d="M0 1100 l0 -1100 1100 0 1100 0 0 1100 0 1100 -1100 0 -1100 0 0
-1100z m827 516 c32 -35 101 -113 153 -174 52 -61 100 -111 105 -111 6 0 66
65 135 145 69 80 137 158 152 175 l28 30 329 -3 c254 -2 333 -6 343 -16 10
-10 14 -66 16 -212 l3 -200 -323 -370 -323 -370 -345 0 -345 1 -322 370 -323
370 0 203 c0 144 3 205 12 214 9 9 96 12 329 12 l317 0 59 -64z"/>
<path d="M226 1578 c11 -13 66 -76 123 -140 l102 -118 150 0 149 0 0 140 0
140 -272 0 -271 0 19 -22z"/>
<path d="M1460 1460 l0 -140 129 0 129 0 103 118 c56 64 111 127 122 140 l20
22 -251 0 -252 0 0 -140z"/>
<path d="M180 1427 l0 -107 91 0 c86 0 91 1 78 18 -13 16 -140 164 -160 187
-5 5 -9 -37 -9 -98z"/>
<path d="M1928 1426 l-87 -101 86 -3 c47 -2 87 -1 90 1 2 3 2 49 1 104 l-3 99
-87 -100z"/>
<path d="M820 1393 l0 -128 111 -130 c61 -71 115 -134 120 -139 5 -6 9 45 9
125 l0 135 -116 132 c-63 72 -117 132 -120 132 -2 0 -4 -57 -4 -127z"/>
<path d="M1258 1389 l-117 -134 -1 -112 c0 -62 2 -113 4 -113 2 0 56 61 120
135 l117 135 -3 111 -3 111 -117 -133z"/>
<path d="M221 1223 c19 -24 487 -563 510 -588 19 -19 19 -17 19 112 l0 131
-157 181 -157 181 -114 0 c-107 0 -114 -1 -101 -17z"/>
<path d="M640 1101 c66 -77 127 -144 134 -150 9 -8 54 -11 126 -9 l111 3 -126
148 -126 147 -120 0 -120 0 121 -139z"/>
<path d="M1340 1119 c-57 -67 -114 -134 -128 -150 l-24 -29 100 0 101 0 131
150 131 150 -104 0 -103 0 -104 -121z"/>
<path d="M1613 1063 l-153 -177 0 -108 c0 -59 2 -108 4 -108 3 0 411 466 484
553 14 16 9 17 -84 17 l-99 0 -152 -177z"/>
<path d="M820 725 l0 -145 280 0 280 0 0 145 0 145 -280 0 -280 0 0 -145z"/>
</g>
</svg>
